<svg xmlns="http://www.w3.org/2000/svg" xmlns:xlink="http://www.w3.org/1999/xlink" width="500" zoomAndPan="magnify" viewBox="0 0 375 374.999991" height="500" preserveAspectRatio="xMidYMid meet" version="1.0"><rect x="-37.5" width="450" fill="#ffffff" y="-37.499999" height="449.999989" fill-opacity="1"/><rect x="-37.5" width="450" fill="#ffffff" y="-37.499999" height="449.999989" fill-opacity="1"/><path fill="#0d0a0b" d="M 66.964844 50.699219 C 72.617188 51.21875 77.390625 52.421875 82.679688 54.445312 L 84.960938 55.292969 C 87.355469 56.1875 89.746094 57.089844 92.136719 57.996094 L 96.824219 59.746094 C 99.964844 60.921875 103.109375 62.097656 106.246094 63.277344 L 108.613281 64.164062 L 113.3125 65.933594 C 123.800781 69.878906 134.332031 73.5 145.050781 76.769531 C 168.011719 83.828125 168.011719 83.828125 169.324219 85.140625 C 169.414062 86.464844 169.441406 87.796875 169.441406 89.125 L 169.449219 91.746094 L 169.4375 94.660156 L 169.441406 97.726562 C 169.445312 101.148438 169.4375 104.570312 169.433594 107.992188 L 169.433594 115.316406 C 169.433594 120.585938 169.429688 125.855469 169.425781 131.125 C 169.417969 138.746094 169.414062 146.363281 169.414062 153.984375 C 169.410156 166.34375 169.40625 178.707031 169.394531 191.066406 C 169.386719 203.078125 169.378906 215.089844 169.375 227.101562 L 169.375 229.34375 L 169.371094 240.476562 C 169.363281 271.285156 169.347656 302.097656 169.324219 332.90625 C 165.855469 332.355469 162.726562 331.769531 159.472656 330.4375 L 157.175781 329.507812 L 154.738281 328.5 L 152.164062 327.453125 C 149.453125 326.34375 146.742188 325.230469 144.03125 324.117188 C 142.246094 323.386719 140.457031 322.652344 138.667969 321.925781 C 136.113281 320.882812 133.5625 319.835938 131.011719 318.789062 C 123.710938 315.792969 116.382812 312.878906 109.058594 309.945312 L 108.101562 140.625 C 94.960938 134.910156 81.980469 129.308594 68.589844 124.28125 C 66.964844 123.402344 66.964844 123.402344 65.050781 120.535156 C 64.894531 117.539062 64.894531 117.539062 65.011719 113.796875 L 65.066406 111.734375 C 65.128906 109.480469 65.207031 107.230469 65.285156 104.980469 C 65.332031 103.417969 65.375 101.855469 65.421875 100.292969 C 65.539062 96.183594 65.671875 92.074219 65.808594 87.964844 C 65.941406 83.769531 66.066406 79.578125 66.191406 75.382812 C 66.441406 67.15625 66.699219 58.925781 66.964844 50.699219 " fill-opacity="1" fill-rule="nonzero"/><path fill="#0d0a0b" d="M 278.378906 115.75 C 281.078125 117.578125 282.5625 119.601562 284.117188 122.449219 C 291.699219 139.464844 290.183594 160.363281 290.097656 178.53125 L 290.089844 181.847656 C 289.921875 240.257812 289.921875 240.257812 278.976562 259.664062 C 277.605469 261.570312 276.152344 263.265625 274.554688 264.984375 L 272.992188 266.871094 C 265.113281 275.722656 254.300781 279.828125 243.347656 283.550781 C 238.777344 285.058594 234.191406 286.523438 229.589844 287.945312 C 227.679688 285.074219 227.679688 285.074219 227.441406 282.398438 L 227.441406 279.085938 L 227.429688 275.28125 L 227.445312 271.097656 L 227.441406 266.699219 C 227.433594 262.710938 227.441406 258.726562 227.453125 254.738281 C 227.460938 250.5625 227.460938 246.390625 227.460938 242.214844 C 227.460938 235.199219 227.46875 228.179688 227.480469 221.160156 C 227.496094 213.0625 227.503906 204.960938 227.5 196.863281 C 227.5 188.230469 227.507812 179.597656 227.515625 170.964844 L 227.519531 163.519531 C 227.519531 159.609375 227.523438 155.695312 227.535156 151.785156 C 227.539062 150.355469 227.539062 148.921875 227.539062 147.492188 C 227.535156 140.359375 227.652344 133.351562 228.636719 126.273438 L 230.488281 125.632812 L 238.976562 122.6875 L 241.890625 121.675781 C 247.582031 119.707031 253.246094 117.671875 258.886719 115.570312 C 265.386719 113.351562 271.929688 113.273438 278.378906 115.75 " fill-opacity="1" fill-rule="nonzero"/></svg>